<svg width="52" height="52" viewBox="0 0 52 52" fill="none" xmlns="http://www.w3.org/2000/svg">
<rect width="52" height="52" rx="10" fill="#F0F0F0"/>
<path fill-rule="evenodd" clip-rule="evenodd" d="M15.2 15.2C14.2452 15.2 13.3295 15.5792 12.6544 16.2544C11.9793 16.9295 11.6 17.8452 11.6 18.8V26C11.6 26.9547 11.9793 27.8704 12.6544 28.5455C13.3295 29.2207 14.2452 29.6 15.2 29.6V18.8H33.2C33.2 17.8452 32.8207 16.9295 32.1456 16.2544C31.4704 15.5792 30.5548 15.2 29.6 15.2H15.2ZM18.8 26C18.8 25.0452 19.1793 24.1295 19.8544 23.4544C20.5295 22.7792 21.4452 22.4 22.4 22.4H36.8C37.7548 22.4 38.6704 22.7792 39.3456 23.4544C40.0207 24.1295 40.4 25.0452 40.4 26V33.2C40.4 34.1547 40.0207 35.0704 39.3456 35.7455C38.6704 36.4207 37.7548 36.8 36.8 36.8H22.4C21.4452 36.8 20.5295 36.4207 19.8544 35.7455C19.1793 35.0704 18.8 34.1547 18.8 33.2V26ZM29.6 33.2C30.5548 33.2 31.4704 32.8207 32.1456 32.1455C32.8207 31.4704 33.2 30.5547 33.2 29.6C33.2 28.6452 32.8207 27.7295 32.1456 27.0544C31.4704 26.3792 30.5548 26 29.6 26C28.6452 26 27.7295 26.3792 27.0544 27.0544C26.3793 27.7295 26 28.6452 26 29.6C26 30.5547 26.3793 31.4704 27.0544 32.1455C27.7295 32.8207 28.6452 33.2 29.6 33.2Z" fill="#1D1D1D"/>
</svg>
