<svg width="75" height="25" viewBox="0 0 75 25" fill="none" xmlns="http://www.w3.org/2000/svg">
<path d="M31.9163 12.8206C31.9163 16.2907 29.1617 18.8478 25.7812 18.8478C22.4007 18.8478 19.6461 16.2907 19.6461 12.8206C19.6461 9.32607 22.4007 6.79346 25.7812 6.79346C29.1617 6.79346 31.9163 9.32607 31.9163 12.8206ZM29.2307 12.8206C29.2307 10.6522 27.6342 9.16846 25.7812 9.16846C23.9283 9.16846 22.3318 10.6522 22.3318 12.8206C22.3318 14.9674 23.9283 16.4728 25.7812 16.4728C27.6342 16.4728 29.2307 14.9647 29.2307 12.8206Z" fill="#EA4335"/>
<path d="M45.1516 12.8206C45.1516 16.2907 42.397 18.8478 39.0165 18.8478C35.636 18.8478 32.8814 16.2907 32.8814 12.8206C32.8814 9.32878 35.636 6.79346 39.0165 6.79346C42.397 6.79346 45.1516 9.32607 45.1516 12.8206ZM42.466 12.8206C42.466 10.6522 40.8695 9.16846 39.0165 9.16846C37.1636 9.16846 35.5671 10.6522 35.5671 12.8206C35.5671 14.9674 37.1636 16.4728 39.0165 16.4728C40.8695 16.4728 42.466 14.9647 42.466 12.8206Z" fill="#FBBC05"/>
<path d="M57.8354 7.15759V17.9782C57.8354 22.4293 55.1718 24.2473 52.0229 24.2473C49.0588 24.2473 47.2747 22.2935 46.602 20.6956L48.9402 19.7364C49.3566 20.7174 50.3768 21.875 52.0202 21.875C54.0358 21.875 55.2849 20.6494 55.2849 18.3424V17.4755H55.1911C54.59 18.2065 53.4319 18.8451 51.9705 18.8451C48.9126 18.8451 46.1111 16.2201 46.1111 12.8424C46.1111 9.4402 48.9126 6.79346 51.9705 6.79346C53.4292 6.79346 54.5873 7.43204 55.1911 8.14128H55.2849V7.1603H57.8354V7.15759ZM55.4751 12.8424C55.4751 10.7201 54.0385 9.16846 52.2104 9.16846C50.3575 9.16846 48.8051 10.7201 48.8051 12.8424C48.8051 14.9429 50.3575 16.4728 52.2104 16.4728C54.0385 16.4728 55.4751 14.9429 55.4751 12.8424Z" fill="#4285F4"/>
<path d="M62.0404 0.815186V18.4782H59.4209V0.815186H62.0404Z" fill="#34A853"/>
<path d="M72.2482 14.8044L74.3328 16.1739C73.66 17.1549 72.0387 18.8451 69.2372 18.8451C65.7629 18.8451 63.1683 16.1984 63.1683 12.8179C63.1683 9.23371 65.785 6.79077 68.9367 6.79077C72.1104 6.79077 73.6628 9.2799 74.1701 10.625L74.4486 11.3098L66.2731 14.6468C66.899 15.856 67.8723 16.4728 69.2372 16.4728C70.6049 16.4728 71.5534 15.8098 72.2482 14.8044ZM65.8319 12.6359L71.297 10.3995C70.9964 9.64675 70.092 9.12229 69.0277 9.12229C67.6628 9.12229 65.7629 10.3098 65.8319 12.6359V12.6359Z" fill="#EA4335"/>
<path d="M9.7308 11.2527V8.69562H18.4744C18.5598 9.14127 18.604 9.66845 18.604 10.2391C18.604 12.1576 18.0718 14.5299 16.3567 16.2201C14.6885 17.932 12.5571 18.8451 9.73356 18.8451C4.5001 18.8451 0.0993652 14.644 0.0993652 9.48638C0.0993652 4.32877 4.5001 0.127686 9.73356 0.127686C12.6288 0.127686 14.6913 1.24725 16.2409 2.70649L14.41 4.51084C13.2988 3.48366 11.7933 2.68475 9.7308 2.68475C5.90911 2.68475 2.92014 5.72008 2.92014 9.48638C2.92014 13.2527 5.90911 16.288 9.7308 16.288C12.2097 16.288 13.6214 15.307 14.5258 14.4157C15.2593 13.6929 15.7418 12.6603 15.9321 11.25L9.7308 11.2527V11.2527Z" fill="#4285F4"/>
</svg>
