<svg width="52" height="52" viewBox="0 0 52 52" fill="none" xmlns="http://www.w3.org/2000/svg">
<rect width="52" height="52" rx="10" fill="#F0F0F0"/>
<path d="M24.6667 17.8427V35.6533C24.6663 36.206 24.4709 36.7407 24.1149 37.1634C23.7589 37.5861 23.2651 37.8695 22.7206 37.9639C22.1761 38.0582 21.6158 37.9574 21.1383 37.6791C20.6609 37.4008 20.297 36.9629 20.1107 36.4427L17.248 28.2427L24.6667 17.8427ZM34 27.3333C35.0609 27.3333 36.0783 26.9119 36.8285 26.1618C37.5786 25.4116 38 24.3942 38 23.3333C38 22.2725 37.5786 21.2551 36.8285 20.5049C36.0783 19.7548 35.0609 19.3333 34 19.3333V27.3333ZM17.248 28.244C16.1163 27.7628 15.1856 26.9054 14.6134 25.8169C14.0412 24.7284 13.8626 23.4756 14.108 22.2705C14.3533 21.0655 15.0074 19.9822 15.9596 19.204C16.9118 18.4258 18.1036 18.0005 19.3334 18H21.776C27.2427 18 31.9427 16.3547 34 14V32.6667C31.9427 30.312 27.244 28.6667 21.776 28.6667H19.3334C18.6169 28.6677 17.9076 28.5239 17.248 28.244V28.244Z" stroke="#1D1D1D" stroke-width="2" stroke-linecap="round" stroke-linejoin="round"/>
</svg>
