<svg width="93" height="20" viewBox="0 0 93 20" fill="none" xmlns="http://www.w3.org/2000/svg">
<g clip-path="url(#clip0_1_559)">
<path d="M33.1004 11.3342L32.5572 12.87H32.5119C32.4214 12.5237 32.2554 11.9967 31.9838 11.3643L29.0715 4.0617H26.2195V15.7008H28.1057V8.51857C28.1057 8.06686 28.1057 7.55493 28.0907 6.92253C28.0756 6.60634 28.0454 6.36542 28.0303 6.18474H28.0756C28.1661 6.63645 28.2717 6.9677 28.3472 7.1785L31.848 15.6706H33.1758L36.6465 7.10322C36.7219 6.90748 36.7973 6.51599 36.8728 6.18474H36.9181C36.8728 7.04299 36.8426 7.8109 36.8275 8.27766V15.6556H38.8344V4.03159H36.0881L33.1004 11.3342V11.3342ZM40.7357 7.31401H42.6974V15.6556H40.7357V7.31401ZM41.7316 3.79068C41.3997 3.79068 41.1281 3.91113 40.9017 4.12193C40.6754 4.33273 40.5547 4.60375 40.5547 4.93501C40.5547 5.25121 40.6754 5.52223 40.9017 5.73303C41.1281 5.94383 41.3997 6.04923 41.7316 6.04923C42.0636 6.04923 42.3503 5.92877 42.5616 5.73303C42.7879 5.52223 42.9086 5.25121 42.9086 4.93501C42.9086 4.61881 42.7879 4.34779 42.5616 4.12193C42.3654 3.91113 42.0787 3.79068 41.7316 3.79068V3.79068ZM49.6537 7.23873C49.2915 7.16344 48.9143 7.11827 48.5521 7.11827C47.6619 7.11827 46.847 7.31401 46.168 7.7055C45.489 8.09698 44.9457 8.63903 44.5987 9.3166C44.2365 10.0092 44.0554 10.8072 44.0554 11.7257C44.0554 12.5237 44.2365 13.2314 44.5836 13.8789C44.9306 14.5113 45.4135 15.0232 46.0624 15.3695C46.681 15.7158 47.4053 15.8965 48.2202 15.8965C49.1557 15.8965 49.9555 15.7008 50.5892 15.3394L50.6043 15.3243V13.5175L50.5289 13.5777C50.2422 13.7885 49.9102 13.9692 49.5782 14.0746C49.2312 14.1951 48.9143 14.2553 48.6427 14.2553C47.858 14.2553 47.2394 14.0294 46.8018 13.5326C46.3491 13.0507 46.1227 12.3882 46.1227 11.5601C46.1227 10.7018 46.3491 10.0243 46.8168 9.52739C47.2846 9.03051 47.9033 8.77454 48.6578 8.77454C49.2915 8.77454 49.9404 8.98534 50.5289 9.40694L50.6043 9.46717V7.55493L50.5892 7.53987C50.3327 7.43447 50.046 7.31401 49.6537 7.23873V7.23873ZM56.1271 7.1785C55.6443 7.1785 55.1916 7.32907 54.7992 7.64527C54.4673 7.91629 54.2409 8.30778 54.0448 8.77454H54.0297V7.31401H52.068V15.6556H54.0297V11.3945C54.0297 10.6717 54.1806 10.0694 54.5125 9.63279C54.8445 9.18108 55.267 8.95523 55.7801 8.95523C55.9611 8.95523 56.1422 9.0004 56.3686 9.03051C56.5798 9.09074 56.7307 9.15097 56.8363 9.22625L56.9118 9.28648V7.32907L56.8665 7.31401C56.7307 7.22367 56.4591 7.1785 56.1271 7.1785V7.1785ZM61.4688 7.13333C60.0957 7.13333 58.9941 7.53987 58.2246 8.33789C57.4399 9.13591 57.0627 10.2351 57.0627 11.6203C57.0627 12.9152 57.455 13.9692 58.2095 14.7371C58.964 15.49 59.9901 15.8814 61.2727 15.8814C62.6156 15.8814 63.687 15.4749 64.4566 14.6618C65.2412 13.8488 65.6185 12.7646 65.6185 11.4246C65.6185 10.0996 65.2563 9.04557 64.5169 8.27766C63.8077 7.50976 62.7665 7.13333 61.4688 7.13333V7.13333ZM63.0382 13.5476C62.676 14.0144 62.1026 14.2402 61.3934 14.2402C60.6842 14.2402 60.1108 14.0144 59.7034 13.5175C59.2959 13.0507 59.0998 12.3732 59.0998 11.5149C59.0998 10.6266 59.311 9.94899 59.7034 9.46717C60.1108 8.98534 60.6691 8.74443 61.3783 8.74443C62.0724 8.74443 62.6156 8.97028 63.008 9.43705C63.4003 9.90382 63.6116 10.5814 63.6116 11.4697C63.5814 12.3732 63.4154 13.0808 63.0382 13.5476V13.5476ZM69.9945 10.7771C69.3758 10.5212 68.9835 10.3254 68.8024 10.1598C68.6515 10.0092 68.576 9.79842 68.576 9.52739C68.576 9.30154 68.6666 9.07568 68.8929 8.92511C69.1193 8.77454 69.3758 8.69926 69.753 8.69926C70.085 8.69926 70.4321 8.75949 70.764 8.84983C71.096 8.94017 71.3978 9.07568 71.6392 9.25637L71.7147 9.3166V7.47964L71.6694 7.46458C71.4431 7.37424 71.1413 7.2839 70.7791 7.20862C70.417 7.14839 70.085 7.11827 69.8134 7.11827C68.8778 7.11827 68.1083 7.34413 67.5047 7.84101C66.9011 8.30778 66.6144 8.94017 66.6144 9.67796C66.6144 10.0694 66.6748 10.4158 66.8106 10.7018C66.9464 10.9879 67.1425 11.2589 67.4141 11.4848C67.6858 11.6956 68.0781 11.9365 68.6213 12.1624C69.074 12.3581 69.4211 12.5087 69.6323 12.6291C69.8436 12.7496 69.9794 12.8851 70.085 12.9905C70.1604 13.111 70.2057 13.2615 70.2057 13.4573C70.2057 14.0144 69.7832 14.2854 68.9231 14.2854C68.5911 14.2854 68.2441 14.2252 67.8366 14.0897C67.4292 13.9542 67.052 13.7584 66.7351 13.5326L66.6597 13.4723V15.3846L66.7049 15.3996C66.9916 15.5351 67.3387 15.6255 67.7612 15.7309C68.1837 15.8062 68.561 15.8664 68.8929 15.8664C69.9039 15.8664 70.7339 15.6405 71.3223 15.1437C71.9259 14.6618 72.2428 14.0445 72.2428 13.2465C72.2428 12.6894 72.0919 12.1925 71.7599 11.8161C71.3223 11.4547 70.7791 11.0783 69.9945 10.7771V10.7771ZM77.4185 7.13333C76.0454 7.13333 74.9438 7.53987 74.1743 8.33789C73.4047 9.13591 73.0124 10.2351 73.0124 11.6203C73.0124 12.9152 73.4047 13.9692 74.1592 14.7371C74.9137 15.49 75.9398 15.8814 77.2224 15.8814C78.5654 15.8814 79.6367 15.4749 80.4063 14.6618C81.1909 13.8488 81.5682 12.7646 81.5682 11.4246C81.5682 10.0996 81.206 9.04557 80.4666 8.27766C79.7574 7.50976 78.7162 7.13333 77.4185 7.13333V7.13333ZM78.9728 13.5476C78.6106 14.0144 78.0372 14.2402 77.328 14.2402C76.6037 14.2402 76.0454 14.0144 75.638 13.5175C75.2306 13.0507 75.0344 12.3732 75.0344 11.5149C75.0344 10.6266 75.2456 9.94899 75.638 9.46717C76.0454 8.98534 76.6037 8.74443 77.3129 8.74443C77.992 8.74443 78.5503 8.97028 78.9426 9.43705C79.3349 9.90382 79.5462 10.5814 79.5462 11.4697C79.5462 12.3732 79.35 13.0808 78.9728 13.5476V13.5476ZM92.0555 8.92511V7.31401H90.0787V4.84467L90.0184 4.85972L88.1472 5.41683L88.102 5.43189V7.31401H85.1444V6.26002C85.1444 5.7782 85.2651 5.40178 85.4764 5.16086C85.6876 4.91995 86.0045 4.7995 86.3969 4.7995C86.6685 4.7995 86.9552 4.85972 87.2721 4.99524L87.3475 5.04041V3.33897L87.3022 3.32391C87.0306 3.23357 86.6685 3.17334 86.2007 3.17334C85.6122 3.17334 85.0992 3.30885 84.6314 3.53471C84.1636 3.79068 83.8165 4.13699 83.56 4.60375C83.3035 5.05546 83.1677 5.5674 83.1677 6.15463V7.31401H81.7945V8.91006H83.1677V15.6556H85.1444V8.92511H88.102V13.2164C88.102 14.978 88.9319 15.8664 90.5918 15.8664C90.8634 15.8664 91.1501 15.8212 91.4217 15.776C91.7084 15.7158 91.9196 15.6405 92.0404 15.5803L92.0555 15.5653V13.9542L91.98 14.0144C91.8593 14.0897 91.7537 14.1499 91.5726 14.1951C91.4217 14.2402 91.2859 14.2553 91.1803 14.2553C90.7879 14.2553 90.5163 14.1649 90.3202 13.9391C90.1391 13.7283 90.0485 13.382 90.0485 12.87V8.92511H92.0555V8.92511Z" fill="#737373"/>
<path d="M0.929413 0.146973H10.1793V9.37691H0.929413V0.146973Z" fill="#F25022"/>
<path d="M11.145 0.146973H20.3949V9.37691H11.145V0.146973Z" fill="#7FBA00"/>
<path d="M0.929413 10.3406H10.1793V19.5705H0.929413V10.3406Z" fill="#00A4EF"/>
<path d="M11.145 10.3406H20.3949V19.5705H11.145V10.3406Z" fill="#FFB900"/>
</g>
<defs>
<clipPath id="clip0_1_559">
<rect width="91.1412" height="19.4235" fill="white" transform="translate(0.929413 0.146973)"/>
</clipPath>
</defs>
</svg>
