<svg width="205" height="56" viewBox="0 0 205 56" fill="none" xmlns="http://www.w3.org/2000/svg">
<rect width="56" height="56" rx="28" fill="#121212"/>
<path d="M37.568 19.152V36H33.464V25.896L29.696 36H26.384L22.592 25.872V36H18.488V19.152H23.336L28.064 30.816L32.744 19.152H37.568Z" fill="white"/>
<path d="M70.44 34H73.16V23.68L77.78 30H78.1L82.7 23.88V34H85.44V19.1H82.84L78 25.82L73.04 19.1H70.44V34ZM89.0716 21.9H91.6916V19.1H89.0716V21.9ZM89.0716 34H91.6916V23.12H89.0716V34ZM95.1106 34H97.7306V27.62C97.7306 26.9133 97.9306 26.3467 98.3306 25.92C98.744 25.4933 99.2773 25.28 99.9306 25.28C100.584 25.28 101.111 25.4933 101.511 25.92C101.924 26.3333 102.131 26.9 102.131 27.62V34H104.751V27C104.751 26.1867 104.577 25.4733 104.231 24.86C103.884 24.2333 103.397 23.7467 102.771 23.4C102.157 23.0533 101.451 22.88 100.651 22.88C99.9706 22.88 99.3573 23.0133 98.8106 23.28C98.2773 23.5467 97.864 23.94 97.5706 24.46V23.12H95.1106V34ZM107.966 21.9H110.586V19.1H107.966V21.9ZM107.966 34H110.586V23.12H107.966V34ZM114.005 34H116.625V27.62C116.625 26.9133 116.818 26.3467 117.205 25.92C117.592 25.4933 118.098 25.28 118.725 25.28C119.365 25.28 119.872 25.4933 120.245 25.92C120.632 26.3333 120.825 26.9 120.825 27.62V34H123.445V27.62C123.445 26.9133 123.638 26.3467 124.025 25.92C124.412 25.4933 124.918 25.28 125.545 25.28C126.185 25.28 126.692 25.4933 127.065 25.92C127.452 26.3333 127.645 26.9 127.645 27.62V34H130.265V27C130.265 26.1867 130.085 25.4733 129.725 24.86C129.378 24.2333 128.905 23.7467 128.305 23.4C127.705 23.0533 127.018 22.88 126.245 22.88C125.525 22.88 124.872 23.0267 124.285 23.32C123.712 23.6133 123.238 24.0533 122.865 24.64C122.545 24.1067 122.085 23.68 121.485 23.36C120.898 23.04 120.238 22.88 119.505 22.88C118.825 22.88 118.218 23.0133 117.685 23.28C117.152 23.5467 116.745 23.9467 116.465 24.48V23.12H114.005V34ZM136.782 34.24C138.195 34.24 139.328 33.7733 140.182 32.84V34H142.662V26.76C142.662 26 142.468 25.3267 142.082 24.74C141.695 24.1533 141.162 23.7 140.482 23.38C139.815 23.0467 139.035 22.88 138.142 22.88C137.048 22.88 136.075 23.14 135.222 23.66C134.368 24.18 133.782 24.8667 133.462 25.72L135.602 26.76C135.802 26.2667 136.115 25.8733 136.542 25.58C136.968 25.2733 137.468 25.12 138.042 25.12C138.642 25.12 139.122 25.28 139.482 25.6C139.855 25.9067 140.042 26.2933 140.042 26.76V27.12L136.802 27.64C135.522 27.8533 134.575 28.26 133.962 28.86C133.348 29.46 133.042 30.2133 133.042 31.12C133.042 32.08 133.382 32.84 134.062 33.4C134.742 33.96 135.648 34.24 136.782 34.24ZM135.762 31.02C135.762 30.26 136.275 29.78 137.302 29.58L140.042 29.12V29.56C140.042 30.3067 139.782 30.94 139.262 31.46C138.755 31.98 138.088 32.24 137.262 32.24C136.822 32.24 136.462 32.1333 136.182 31.92C135.902 31.6933 135.762 31.3933 135.762 31.02Z" fill="black"/>
</svg>
